<svg width="301" height="248" viewBox="0 0 301 248" fill="none" xmlns="http://www.w3.org/2000/svg">
<g clip-path="url(#clip0_51_3)">
<path d="M92.2694 149.35C91.2697 148.75 90.1701 148.451 88.9705 148.451C85.9715 148.451 83.1724 150.05 81.7729 153.049C79.9735 156.948 81.6729 161.746 85.6716 163.545C87.571 164.445 89.6703 164.445 91.6696 163.845C93.569 163.146 95.2684 161.646 96.1681 159.847C97.9675 155.848 96.2681 151.15 92.2694 149.35Z" fill="#4E3B3A"/>
<path d="M278.307 185.338C276.508 178.74 274.409 171.843 272.009 164.745C272.009 164.645 271.91 164.545 271.91 164.545C271.71 163.845 271.41 163.146 271.21 162.446C271.21 162.346 271.11 162.146 271.11 162.046C270.91 161.346 270.61 160.746 270.41 160.047C270.31 159.847 270.31 159.747 270.21 159.547C270.01 158.847 269.71 158.247 269.51 157.547C269.41 157.348 269.41 157.248 269.31 157.048C269.11 156.348 268.811 155.748 268.611 155.048C268.511 154.848 268.511 154.748 268.411 154.548C268.211 153.849 267.911 153.249 267.711 152.549C267.711 152.449 267.611 152.349 267.611 152.249C266.211 148.451 264.812 144.752 263.312 141.053C263.212 140.853 263.212 140.753 263.112 140.553C262.913 139.953 262.613 139.454 262.413 138.854C262.313 138.554 262.213 138.354 262.113 138.054C261.913 137.554 261.713 136.954 261.413 136.455C261.313 136.155 261.213 135.855 261.013 135.555C260.813 135.055 260.613 134.555 260.413 134.055C260.313 133.755 260.113 133.456 260.013 133.156C259.814 132.656 259.614 132.156 259.414 131.656C259.314 131.356 259.114 131.056 259.014 130.656C258.814 130.157 258.614 129.657 258.414 129.257C258.314 128.957 258.114 128.657 258.014 128.257C257.814 127.757 257.614 127.358 257.414 126.858C257.314 126.558 257.114 126.258 257.014 125.858C256.815 125.358 256.615 124.958 256.415 124.459C256.215 124.159 256.115 123.759 255.915 123.459C255.715 122.959 255.515 122.559 255.315 122.059C255.215 121.759 255.015 121.46 254.915 121.16C254.515 120.26 254.015 119.26 253.516 118.361C253.416 118.061 253.216 117.761 253.116 117.561C252.916 117.161 252.716 116.761 252.516 116.361C252.316 115.961 252.116 115.561 251.916 115.262C251.716 114.862 251.516 114.562 251.316 114.162C251.116 113.762 250.917 113.362 250.717 113.062C250.517 112.662 250.317 112.363 250.117 111.963C249.917 111.563 249.717 111.163 249.517 110.863C249.317 110.463 249.117 110.163 248.917 109.763C248.717 109.364 248.517 108.964 248.317 108.664C248.117 108.364 247.918 107.964 247.718 107.664C247.518 107.264 247.318 106.964 247.118 106.564C246.918 106.265 246.718 105.865 246.518 105.565C246.318 105.165 246.118 104.865 245.818 104.465C245.618 104.165 245.418 103.765 245.218 103.466C245.018 103.066 244.719 102.666 244.519 102.366C244.319 102.066 244.119 101.766 243.919 101.466C243.719 101.066 243.419 100.666 243.219 100.267C243.019 99.9667 242.819 99.6668 242.719 99.3669C242.419 98.967 242.219 98.5671 241.92 98.0673C241.72 97.8674 241.62 97.5675 241.42 97.3675C241.02 96.7677 240.62 96.068 240.12 95.4682C240.02 95.3682 239.92 95.2682 239.92 95.0683C239.62 94.5685 239.22 94.0686 238.921 93.5688C238.721 93.3689 238.621 93.1689 238.421 92.869C238.121 92.4692 237.921 92.0693 237.621 91.6694C237.421 91.4695 237.221 91.1696 237.121 90.9697C236.821 90.5698 236.621 90.2699 236.321 89.97C236.121 89.7701 235.922 89.4702 235.722 89.2702C235.422 88.9703 235.222 88.5705 234.922 88.2706C234.722 88.0706 234.522 87.7707 234.322 87.5708C234.022 87.2709 233.822 86.971 233.522 86.6711C233.322 86.4712 233.122 86.1713 232.923 85.9713C232.623 85.6714 232.423 85.3715 232.123 85.0716C231.923 84.8717 231.723 84.6718 231.523 84.3719C231.223 84.072 231.023 83.7721 230.723 83.4722C230.523 83.2722 230.323 83.0723 230.123 82.8724C229.824 82.5725 229.624 82.2726 229.324 81.9727C229.124 81.7727 228.924 81.5728 228.824 81.3729C228.524 81.073 228.224 80.7731 227.924 80.4732C227.724 80.2732 227.624 80.1733 227.424 79.9733C227.024 79.6734 226.725 79.2736 226.325 78.9737C226.225 78.8737 226.125 78.7737 226.025 78.6738C225.525 78.2739 225.125 77.874 224.625 77.4742C224.525 77.3742 224.425 77.2742 224.225 77.1743C223.926 76.8744 223.526 76.5745 223.226 76.2746C223.026 76.1746 222.926 75.9747 222.726 75.8747C222.426 75.6748 222.126 75.3749 221.826 75.1749C221.626 75.075 221.426 74.875 221.226 74.7751C220.927 74.5751 220.627 74.3752 220.427 74.1753C220.227 74.0753 220.027 73.8754 219.827 73.7754C219.527 73.5755 219.327 73.3755 219.027 73.2756C218.827 73.1756 218.627 73.0756 218.427 72.8757C218.127 72.6758 217.928 72.5758 217.628 72.3759C217.428 72.2759 217.228 72.1759 217.028 72.076C216.728 71.976 216.528 71.7761 216.228 71.6761C216.028 71.5761 215.828 71.4762 215.628 71.3762C215.328 71.2762 215.128 71.0763 214.829 70.9763C214.629 70.8764 214.429 70.7764 214.229 70.6764C213.929 70.5765 213.629 70.4765 213.329 70.3765C213.129 70.2766 212.929 70.2766 212.729 70.1766C212.429 70.0766 212.129 69.9767 211.73 69.8767C211.53 69.8767 211.43 69.7767 211.23 69.7767C210.73 69.6768 210.23 69.4768 209.83 69.3769C197.434 66.6778 183.739 75.1749 168.944 95.0683L168.444 95.6681C160.447 104.965 152.549 106.265 147.351 105.865C137.754 104.865 132.256 97.5675 130.457 94.6684C116.361 75.4748 102.766 66.9777 90.37 69.6768C89.8702 69.7767 89.4703 69.8767 88.9705 70.0766C88.7706 70.0766 88.6706 70.1766 88.4707 70.1766C88.1708 70.2766 87.8709 70.3765 87.571 70.4765C87.371 70.5765 87.1711 70.5765 86.9712 70.6764C86.6713 70.7764 86.3714 70.8764 86.0715 70.9763C85.8715 71.0763 85.6716 71.1763 85.4717 71.2762C85.1718 71.3762 84.9718 71.4762 84.6719 71.6761C84.472 71.7761 84.2721 71.876 84.0721 71.976C83.7722 72.076 83.5723 72.2759 83.2724 72.3759C83.0725 72.4758 82.8725 72.5758 82.6726 72.6758C82.3727 72.8757 82.1728 72.9757 81.8729 73.1756C81.6729 73.2756 81.473 73.3755 81.2731 73.5755C80.9732 73.7754 80.7732 73.8754 80.4733 74.0753C80.2734 74.1753 80.0735 74.3752 79.8735 74.4752C79.5736 74.6751 79.2737 74.875 79.0738 75.075C78.8739 75.1749 78.6739 75.3749 78.474 75.4748C78.1741 75.6748 77.8742 75.8747 77.5743 76.1746C77.3744 76.2746 77.2744 76.4745 77.0745 76.5745C76.7746 76.8744 76.3747 77.1743 76.0748 77.4742C75.9748 77.5741 75.8749 77.6741 75.7749 77.7741C75.2751 78.1739 74.8752 78.5738 74.3754 78.9737C74.2754 79.0736 74.1754 79.1736 74.0755 79.2736C73.6756 79.5735 73.3757 79.9733 73.0758 80.2732C72.8759 80.4732 72.7759 80.5731 72.576 80.7731C72.2761 81.073 71.9762 81.3729 71.6763 81.6728C71.4763 81.8727 71.2764 82.0726 71.1764 82.2726C70.8765 82.5725 70.6766 82.8724 70.3767 83.1723C70.1768 83.3722 69.9768 83.5721 69.7769 83.7721C69.477 84.072 69.2771 84.3719 68.9772 84.6718C68.7772 84.8717 68.5773 85.0716 68.3774 85.3715C68.0775 85.6714 67.8775 85.9713 67.5776 86.2712C67.3777 86.4712 67.1778 86.7711 66.9778 86.971C66.6779 87.2709 66.478 87.5708 66.1781 87.8707C65.9782 88.0706 65.7782 88.3705 65.5783 88.5705C65.2784 88.8704 65.0785 89.2702 64.7786 89.5701C64.5786 89.7701 64.3787 90.07 64.1788 90.2699C63.8789 90.5698 63.6789 90.9697 63.379 91.2696C63.1791 91.4695 62.9792 91.7694 62.8792 91.9693C62.5793 92.3692 62.2794 92.7691 62.0795 93.1689C61.8795 93.3689 61.7796 93.5688 61.5796 93.7687C61.1798 94.2686 60.7799 94.8684 60.48 95.4682C60.38 95.5681 60.38 95.6681 60.2801 95.7681C59.8802 96.3679 59.4803 96.9677 59.0805 97.5675C58.8805 97.7674 58.7806 98.0673 58.5806 98.2672C58.2807 98.6671 58.0808 99.067 57.7809 99.5668C57.581 99.8667 57.381 100.167 57.2811 100.467C57.0811 100.866 56.7812 101.266 56.5813 101.666C56.3814 101.966 56.1814 102.266 55.9815 102.566C55.7816 102.966 55.4817 103.366 55.2817 103.665C55.0818 103.965 54.8819 104.265 54.6819 104.665C54.482 105.065 54.2821 105.365 53.9822 105.765C53.7822 106.065 53.5823 106.465 53.3824 106.764C53.1824 107.164 52.9825 107.464 52.7826 107.864C52.5826 108.164 52.3827 108.564 52.1828 108.964C51.9828 109.364 51.7829 109.663 51.583 110.063C51.383 110.463 51.1831 110.763 50.9832 111.163C50.7832 111.563 50.5833 111.963 50.3834 112.263C50.1834 112.662 49.9835 112.962 49.7836 113.362C49.5836 113.762 49.3837 114.162 49.1838 114.562C48.9838 114.962 48.7839 115.262 48.584 115.661C48.384 116.061 48.1841 116.461 47.9842 116.761C47.7842 117.161 47.5843 117.561 47.3844 117.961C47.3844 118.061 47.2844 118.161 47.2844 118.161C46.7846 119.26 46.1848 120.36 45.6849 121.46C45.485 121.759 45.385 122.059 45.1851 122.459C44.9852 122.959 44.7852 123.359 44.5853 123.859C44.3854 124.159 44.2854 124.558 44.0855 124.858C43.8855 125.358 43.6856 125.758 43.4857 126.258C43.3857 126.558 43.1858 126.958 43.0858 127.258C42.8859 127.757 42.6859 128.157 42.486 128.657C42.386 128.957 42.1861 129.357 42.0861 129.657C41.8862 130.157 41.6863 130.556 41.4863 131.056C41.3864 131.356 41.1864 131.656 41.0865 132.056C40.8865 132.556 40.6866 133.056 40.4867 133.555C40.3867 133.855 40.1868 134.155 40.0868 134.455C39.8869 134.955 39.6869 135.455 39.387 135.955C39.2871 136.255 39.1871 136.554 38.9872 136.754C38.7872 137.254 38.5873 137.854 38.2874 138.354C38.1874 138.554 38.0875 138.854 37.9875 139.054C37.7876 139.653 37.4877 140.153 37.2877 140.753C37.1878 140.953 37.1878 141.053 37.0878 141.253C35.8882 144.252 34.6886 147.351 33.589 150.35C33.2891 151.05 33.0891 151.749 32.7892 152.449C32.7892 152.549 32.6893 152.649 32.6893 152.749C32.4893 153.449 32.1894 154.049 31.9895 154.748C31.8895 154.948 31.8895 155.048 31.7896 155.248C31.5896 155.948 31.2897 156.548 31.0898 157.248C30.9898 157.448 30.9898 157.547 30.8899 157.747C30.6899 158.447 30.39 159.047 30.1901 159.747C30.0901 159.947 30.0901 160.047 29.9902 160.247C29.7902 160.946 29.4903 161.546 29.2904 162.246C29.2904 162.346 29.1904 162.546 29.1904 162.646C28.9905 163.346 28.6906 164.045 28.4907 164.745C28.4907 164.845 28.4907 164.845 28.3907 164.945C26.0915 172.043 23.9922 178.94 22.0928 185.538C21.8929 186.238 21.6929 187.038 21.493 187.737C45.1851 228.424 93.8689 247.018 149.95 247.018C206.031 247.018 254.715 228.324 278.407 187.737C278.707 186.838 278.507 186.138 278.307 185.338ZM115.662 170.043H115.162C111.063 169.943 106.265 169.144 102.266 164.845C100.267 168.444 97.1678 171.243 93.2691 172.742C91.3697 173.542 89.3704 173.842 87.371 173.842C84.9718 173.842 82.5726 173.342 80.3734 172.243C71.8762 168.244 68.1774 157.847 72.0761 149.05C75.9748 140.253 86.0715 136.455 94.5686 140.453C94.6686 140.453 94.7686 140.553 94.8685 140.653C94.3687 137.354 93.1691 134.055 90.7699 132.856C86.0715 130.457 76.8745 134.955 73.2757 137.554C70.6766 139.354 67.0778 138.654 65.3784 135.955C63.579 133.256 64.3787 129.557 66.9778 127.857C68.6773 126.658 84.0721 116.561 95.7682 122.459C102.166 125.558 105.765 132.456 106.565 142.752C107.864 158.547 112.163 158.547 115.262 158.547H115.662C118.761 158.547 121.36 161.246 121.36 164.545C121.36 167.444 118.861 170.043 115.662 170.043ZM173.742 191.736C167.844 193.535 161.446 191.636 154.849 186.238C153.949 185.738 153.249 185.438 152.849 185.338L152.249 185.838C146.751 190.137 141.853 192.336 137.154 192.336C135.655 192.336 134.255 192.136 132.756 191.736C123.859 189.037 120.46 179.14 120.16 177.941L130.457 174.442C130.857 175.841 132.956 180.04 135.955 180.94C138.654 181.839 142.253 179.64 144.852 177.441C147.251 174.642 152.849 171.743 160.547 176.641L161.146 177.041C163.746 179.24 167.544 181.739 170.543 180.84C173.542 179.84 175.542 175.442 176.041 174.342L186.338 177.841C185.938 179.14 182.539 189.037 173.742 191.736ZM229.324 171.143C228.624 171.343 227.824 171.343 227.124 171.343C222.626 171.343 218.727 169.144 215.928 167.044C212.629 169.344 208.531 171.043 203.432 171.243C202.933 171.243 202.533 171.243 201.933 171.243C195.435 171.243 190.037 169.144 186.038 165.045C179.24 158.147 179.44 148.151 179.44 146.951C179.54 143.752 182.039 141.153 185.338 141.353C188.437 141.453 190.937 144.152 190.837 147.451C190.837 147.651 190.837 153.449 194.235 156.848C196.135 158.747 199.034 159.647 202.933 159.547C206.731 159.347 209.33 157.847 211.13 155.848C211.43 155.448 211.73 154.948 212.129 154.648C214.629 151.25 215.228 147.251 215.328 146.551C215.728 143.352 218.627 141.053 221.726 141.453C224.825 141.853 227.124 144.852 226.625 147.951C226.325 150.75 225.225 154.548 223.326 158.147C224.625 159.047 226.125 159.747 227.424 159.547C230.523 159.047 233.422 161.246 233.922 164.445C234.522 167.544 232.323 170.543 229.324 171.143Z" fill="#4E3B3A"/>
<path d="M298.901 109.963C292.103 69.7767 263.512 35.6881 223.726 16.5945C202.133 5.998 177.241 0 150.75 0C132.156 0 114.362 2.999 97.8675 8.3972C40.9865 26.5911 0.5 73.3755 0.5 128.257C0.5 129.257 0.5 130.257 0.599967 131.156C0.599967 131.456 0.599967 131.756 0.599967 131.956C0.899867 140.953 2.2994 149.75 4.6986 158.247C42.8859 55.5815 85.9715 50.6831 85.9715 50.6831C86.1714 50.5831 86.3714 50.5831 86.4713 50.4832C87.1711 50.2832 87.9708 50.0833 88.6706 49.9833C109.264 45.5848 129.657 56.1813 149.15 81.5728L149.95 82.6724C149.95 82.6724 149.95 82.6724 150.05 82.7724C150.45 82.4725 150.95 81.9727 151.65 81.2729C171.143 56.1813 191.336 45.6848 211.93 50.0833C212.629 50.2832 213.429 50.3832 214.129 50.5831C214.329 50.5831 214.529 50.6831 214.729 50.7831C215.428 50.983 216.128 51.1829 216.828 51.4828C217.528 51.6828 218.227 51.9827 218.927 52.2826C219.127 52.3825 219.327 52.3825 219.427 52.4825C220.127 52.7824 220.827 53.0823 221.526 53.3822C222.226 53.6821 222.926 54.082 223.626 54.3819C223.826 54.4818 223.926 54.5818 224.125 54.6818C224.825 55.0816 225.425 55.3815 226.125 55.7814C226.125 55.7814 226.125 55.7814 226.225 55.7814C226.925 56.1813 227.624 56.5811 228.224 57.081C228.424 57.1809 228.524 57.2809 228.724 57.3809C229.324 57.7807 230.023 58.2806 230.623 58.6804C230.623 58.6804 230.623 58.6804 230.723 58.6804C231.423 59.1803 232.023 59.6801 232.723 60.1799C232.923 60.2799 233.022 60.3799 233.222 60.5798C233.822 61.0796 234.422 61.5795 235.122 62.0793C235.122 62.0793 235.122 62.0793 235.222 62.1793C235.822 62.6791 236.521 63.2789 237.121 63.7787C237.121 63.7787 237.121 63.7787 237.221 63.8787C253.316 77.4742 275.208 105.065 295.602 160.946C298.801 150.55 300.5 139.653 300.5 128.357C300.4 122.059 299.9 115.961 298.901 109.963Z" fill="#4E3B3A"/>
</g>
<defs>
<clipPath id="clip0_51_3">
<rect width="300" height="247.018" fill="white" transform="translate(0.5)"/>
</clipPath>
</defs>
</svg>
