<?xml version="1.0" encoding="utf-8"?>
<!-- Generator: Adobe Illustrator 24.1.1, SVG Export Plug-In . SVG Version: 6.00 Build 0)  -->
<svg version="1.1" id="圖層_1" xmlns="http://www.w3.org/2000/svg" xmlns:xlink="http://www.w3.org/1999/xlink" x="0px" y="0px"
	 viewBox="0 0 354.9 303.5" style="enable-background:new 0 0 354.9 303.5;" xml:space="preserve">
<style type="text/css">
	.st0{fill:#4E3B3A;}
</style>
<g>
	<path class="st0" d="M316.4,231.5c-4.9,0-9.3-3.3-10.5-8.3c-10.3-43.3-38-114.3-68.3-120.8c-11.8-2.5-24.9,5.4-39,23.7l-0.5,0.6
		c-7.6,8.6-15.1,9.8-20.1,9.4c-9.1-0.9-14.4-7.7-16.1-10.3c-13.9-17.9-26.9-25.8-38.7-23.3c-30.2,6.5-57.9,77.5-68.2,120.8
		c-1.4,5.8-7.2,9.4-13,8c-5.8-1.4-9.4-7.2-8-13c3.1-12.8,31.4-125.4,84.7-136.8c20.6-4.4,41,6.2,60.5,31.6l0.8,1.1c0,0,0,0,0.1,0.1
		c0.4-0.3,0.9-0.8,1.6-1.5c19.5-25.1,39.7-35.6,60.3-31.2c53.3,11.4,81.6,124,84.7,136.8c1.4,5.8-2.2,11.6-8,13
		C318.1,231.4,317.2,231.5,316.4,231.5z"/>
</g>
<g>
	<path class="st0" d="M167.7,215.9c-1.4,0-2.8-0.2-4.2-0.6c-8.5-2.5-11.7-11.6-12-12.7l9.8-3.2c0.4,1.3,2.4,5.2,5.2,6
		c2.6,0.8,6-1.2,8.5-3.2c2.3-2.6,7.6-5.3,15-0.7l0.6,0.4c2.5,2,6.1,4.3,9,3.5c2.9-0.9,4.8-5,5.2-6l9.8,3.2c-0.3,1-3.6,10.2-12,12.7
		c-5.6,1.7-11.7-0.1-18-5.1c-0.9-0.5-1.5-0.7-1.9-0.8l0,0l-0.6,0.5C176.9,213.9,172.2,215.9,167.7,215.9z M182.9,208.7L182.9,208.7
		L182.9,208.7z M182.9,208.7L182.9,208.7C182.9,208.7,182.9,208.7,182.9,208.7z"/>
</g>
<g>
	<path class="st0" d="M147.3,195.2C147.3,195.2,147.3,195.2,147.3,195.2l-0.5,0c-7.3-0.1-17.3-2.7-19-24.6c-0.3-3.7-1.3-8.3-4.2-9.8
		c-4.5-2.2-13.2,1.9-16.7,4.3c-2.5,1.7-5.9,1-7.5-1.5c-1.7-2.5-1-5.9,1.5-7.5c1.6-1.1,16.3-10.4,27.4-5c6.1,2.9,9.5,9.2,10.3,18.7
		c1.2,14.6,5.3,14.6,8.3,14.6l0.4,0c3,0,5.4,2.5,5.4,5.5C152.7,192.8,150.3,195.2,147.3,195.2z"/>
</g>
<g>
	<path class="st0" d="M120.4,198.7c-2.3,0-4.6-0.5-6.7-1.5c-8.1-3.7-11.6-13.3-7.9-21.4c3.7-8.1,13.3-11.6,21.4-7.9
		c8.1,3.7,11.6,13.3,7.9,21.4l0,0c-1.8,3.9-5,6.9-9.1,8.4C124.2,198.4,122.3,198.7,120.4,198.7z M120.4,177.3c-2,0-3.9,1.1-4.8,3.1
		c-1.2,2.6-0.1,5.8,2.6,7c1.3,0.6,2.7,0.6,4,0.2c1.3-0.5,2.4-1.5,3-2.7c1.2-2.6,0.1-5.8-2.6-7C121.9,177.5,121.2,177.3,120.4,177.3z
		 M130.1,187.1L130.1,187.1L130.1,187.1z"/>
</g>
<g>
	<g>
		<path class="st0" d="M150,274.7C150,274.7,150,274.7,150,274.7l-0.3-0.1c-4.3-1.5-9.6-5-6.3-18.2c0.6-2.2,0.9-5.1-0.5-6.6
			c-2.2-2.1-8.1-1.5-10.7-0.8c-1.8,0.5-3.6-0.6-4.1-2.4c-0.5-1.8,0.6-3.6,2.4-4.1c1.2-0.3,11.6-2.9,17.1,2.5c3,2.9,3.8,7.3,2.3,13
			c-2.2,8.8,0.2,9.6,2,10.2l0.3,0.1c1.8,0.6,2.7,2.5,2.1,4.3C153.6,274.4,151.7,275.3,150,274.7z"/>
	</g>
</g>
<path class="st0" d="M143.5,254.7c-1.9-1.8-4.5-2.8-7.1-2.7c-2.7,0.1-5.1,1.2-7,3.1c-1.8,1.9-2.8,4.5-2.7,7.1c0.1,2.7,1.2,5.1,3.1,7
	c1.1,1,2.3,1.8,3.7,2.2c1.1,0.4,2.3,0.5,3.5,0.5c2.7-0.1,5.1-1.2,7-3.1c1.8-1.9,2.8-4.5,2.7-7.1C146.6,259,145.5,256.6,143.5,254.7z
	 M136.7,265.5c-2,0-3.5-1.6-3.5-3.5c0-2,1.6-3.5,3.5-3.5c2,0,3.5,1.6,3.5,3.5C140.2,263.9,138.6,265.5,136.7,265.5z"/>
<g>
	<path class="st0" d="M229.6,196.3c-6.2,0-11.3-1.9-15.1-5.7c-6.5-6.4-6.3-15.6-6.3-16.7c0.1-3,2.5-5.4,5.6-5.2
		c3,0.1,5.3,2.6,5.2,5.6c0,0.2,0,5.5,3.2,8.7c1.8,1.8,4.6,2.6,8.3,2.5c10-0.4,11.7-10.8,11.9-12c0.4-3,3.1-5.1,6.1-4.7
		c3,0.4,5.1,3.1,4.7,6c-0.9,7.1-6.7,20.8-22.2,21.5C230.5,196.3,230.1,196.3,229.6,196.3z"/>
</g>
<g>
	<path class="st0" d="M253.5,196.4c-8,0-14.1-7-14.8-7.9c-1.9-2.3-1.6-5.7,0.7-7.6c2.3-1.9,5.7-1.6,7.6,0.7c1.2,1.4,4.5,4.3,6.9,3.9
		c3-0.5,5.7,1.6,6.2,4.5s-1.6,5.7-4.5,6.2C254.9,196.4,254.2,196.4,253.5,196.4z"/>
</g>
<g>
	<g>
		<path class="st0" d="M181.1,275.5l-0.3-1.3c-0.7-2.9-4.9-3.2-6.1-0.5l-0.5,1.2c-0.5,1.2-1.8,2-3.2,1.9l-3.5-0.3
			c-1.4-0.1-2.5-1-2.8-2.3l-4.6-17.4c-0.5-1.9,1-3.8,3-3.8l2,0c1.6,0,2.9,1,3.2,2.5v0c0.2,0.8,0.4,9.6,3.2,9.6c2.7,0,2.7-8.3,3-9.1
			l0.1-0.2c0.5-1.3,1.8-2.1,3.3-2l3.5,0.3c1.4,0.1,2.6,1.1,2.9,2.5l0.1,0.3c0.3,1.5-0.7,9.2,1.6,9.3c2.7,0.2,4-7.4,4.6-8.9l0.1-0.1
			c0.5-1.3,1.8-2.2,3.3-2l1.9,0.2c2.2,0.2,3.6,2.4,2.7,4.3l-7.6,16.8c-0.5,1.2-1.8,1.9-3.2,1.8l-3.5-0.3
			C182.5,277.7,181.4,276.8,181.1,275.5z"/>
	</g>
	<g>
		<path class="st0" d="M223.8,260.6c-0.9-0.6-1.7-1-2.4-1.3c-0.7-0.3-1.4-0.4-2.3-0.5c-1.2-0.1-2.3,0.2-3.2,1.1
			c-1,0.9-1.5,2.2-1.5,3.9c0,1.7,0.4,3,1.3,4c0.9,1,2,1.5,3.2,1.7c0.8,0.1,1.5,0.1,2.2,0c0.7-0.1,1.6-0.3,2.5-0.7l1.4,3.7
			c0.6,1.7-0.3,3.6-2.1,4c-0.4,0.1-0.9,0.2-1.3,0.2c-1.5,0.1-2.8,0.1-3.8,0c-3.8-0.4-6.9-1.8-9.3-4.2c-2.3-2.4-3.5-5.6-3.4-9.5
			c0.1-4,1.3-7,3.8-8.9c2.4-2,5.6-2.8,9.4-2.4c1,0.1,2.2,0.4,3.7,0.8c0.6,0.2,1.2,0.4,1.8,0.7c1.5,0.8,2.2,2.5,1.5,4L223.8,260.6z"
			/>
	</g>
	<g>
		<path class="st0" d="M241.6,269.2L228,244.4c-0.9-1.5-0.2-3.5,1.5-4.2l2.2-1c1.6-0.7,3.4-0.1,4.2,1.4l4.2,7.6
			c0.7-0.7,1.6-1.4,2.6-2.2c1-0.7,2-1.3,3.1-1.7c3.1-1.2,5.8-1.2,8.1-0.1c2.2,1.1,4.1,3,5.4,5.5l5.5,10c0.9,1.6,0.1,3.6-1.6,4.3
			l-2.3,0.9c-1.5,0.6-3.3,0-4-1.4l-5.7-10.3c-0.4-0.8-1-1.3-1.8-1.6c-0.8-0.2-1.5-0.2-2.3,0.1c-0.5,0.2-1.1,0.6-1.7,1.1
			c-0.6,0.6-1.2,1.1-1.7,1.7l6.1,11.1c0.9,1.6,0.1,3.6-1.6,4.3l-2.3,0.9C244.1,271.2,242.4,270.6,241.6,269.2z"/>
	</g>
	<g>
		<path class="st0" d="M288.2,243.7c-0.4,1-1,2.2-1.8,3.6s-2,2.7-3.6,3.8c-2.7,1.9-5.3,2.6-7.7,2s-4.7-1.9-6.7-4l-7-7.1
			c-1.8-1.9-1.6-4.9,0.6-6.4v0c1.8-1.3,4.3-1.1,5.8,0.5l7.7,7.8c0.7,0.7,1.3,1,2.1,1.1c0.7,0.1,1.4-0.1,2.1-0.6
			c0.4-0.3,0.8-0.8,1.3-1.4s0.8-1.3,1.1-2l-8-8.1c-1.8-1.9-1.6-4.9,0.6-6.4l0,0c1.8-1.3,4.3-1.1,5.8,0.5l13.3,13.5
			c0.5,0.5,0.4,1.4-0.2,1.8l-0.1,0.1c-1.5,1.1-3.3,1.5-5.1,1.3L288.2,243.7z"/>
	</g>
</g>
<g>
	<path class="st0" d="M318.5,204.7c-0.7,0-1.4-0.1-2.1-0.3c-3.3-1.1-5.1-4.8-4-8.1c3.7-10.8,5.6-22.1,5.6-33.5
		c0-65.4-61.6-118.6-137.4-118.6c-75.8,0-137.4,53.2-137.4,118.6c0,11.4,1.9,22.6,5.6,33.5c1.1,3.3-0.6,7-4,8.1
		c-3.3,1.1-7-0.6-8.1-4c-4.1-12.1-6.2-24.8-6.2-37.6c0-72.4,67.4-131.3,150.2-131.3s150.2,58.9,150.2,131.3
		c0,12.8-2.1,25.4-6.2,37.6C323.6,203,321.1,204.7,318.5,204.7z"/>
</g>
<g>
	<path class="st0" d="M115.3,249.6c-0.4,0-0.9-0.1-1.4-0.2c-2.9-0.7-4.7-3.7-3.9-6.6c0.2-0.9,0.6-4.2-2.6-6.1c-3.2-1.9-7-0.4-7-0.4
		l-3.9,1.5l-2.6-3.3c-2.1-2.9-4-3.3-5.3-3.3c0,0,0,0,0,0c-6.4,0-15.5,9.4-19.8,15.3c-1.8,2.4-5.1,3-7.6,1.2c-2.4-1.8-3-5.1-1.2-7.6
		c1.4-2,14.6-19.7,28.5-19.8c0,0,0.1,0,0.1,0c3.2,0,7.5,0.9,11.5,4.8c3.2-0.6,8-0.6,12.7,2.1c8.5,4.9,8.8,14.1,7.7,18.2
		C119.9,247.9,117.7,249.6,115.3,249.6z"/>
</g>
</svg>
