<?xml version="1.0" encoding="utf-8"?>
<!-- Generator: Adobe Illustrator 24.0.2, SVG Export Plug-In . SVG Version: 6.00 Build 0)  -->
<svg version="1.1" id="圖層_1" xmlns="http://www.w3.org/2000/svg" xmlns:xlink="http://www.w3.org/1999/xlink" x="0px" y="0px"
	 viewBox="0 0 354.9 303.5" style="enable-background:new 0 0 354.9 303.5;" xml:space="preserve">
<style type="text/css">
	.st0{display:none;fill:#4E3B3A;}
	.st1{display:none;fill:#FFFFFF;}
	.st2{fill:#4E3B3A;}
	.st3{display:none;}
	.st4{display:inline;fill:#4E3B3A;}
</style>
<path class="st0" d="M121.4,180.2c-0.7-0.4-1.4-0.6-2.2-0.6c-2,0-3.9,1.1-4.8,3.1c-1.2,2.6-0.1,5.8,2.6,7c1.3,0.6,2.7,0.6,4,0.2
	c1.3-0.5,2.4-1.5,3-2.7C125.2,184.6,124.1,181.4,121.4,180.2z"/>
<path class="st0" d="M308.6,213.9c-1.8-6.6-3.9-13.5-6.3-20.6c0-0.1-0.1-0.2-0.1-0.2c-0.2-0.7-0.5-1.4-0.7-2.1
	c0-0.1-0.1-0.3-0.1-0.4c-0.2-0.7-0.5-1.3-0.7-2c-0.1-0.2-0.1-0.3-0.2-0.5c-0.2-0.7-0.5-1.3-0.7-2c-0.1-0.2-0.1-0.3-0.2-0.5
	c-0.2-0.7-0.5-1.3-0.7-2c-0.1-0.2-0.1-0.3-0.2-0.5c-0.2-0.7-0.5-1.3-0.7-2c0-0.1-0.1-0.2-0.1-0.3c-1.4-3.8-2.8-7.5-4.3-11.2
	c-0.1-0.2-0.1-0.3-0.2-0.5c-0.2-0.6-0.5-1.1-0.7-1.7c-0.1-0.3-0.2-0.5-0.3-0.8c-0.2-0.5-0.4-1.1-0.7-1.6c-0.1-0.3-0.2-0.6-0.4-0.9
	c-0.2-0.5-0.4-1-0.6-1.5c-0.1-0.3-0.3-0.6-0.4-0.9c-0.2-0.5-0.4-1-0.6-1.5c-0.1-0.3-0.3-0.6-0.4-1c-0.2-0.5-0.4-1-0.6-1.4
	c-0.1-0.3-0.3-0.6-0.4-1c-0.2-0.5-0.4-0.9-0.6-1.4c-0.1-0.3-0.3-0.6-0.4-1c-0.2-0.5-0.4-0.9-0.6-1.4c-0.2-0.3-0.3-0.7-0.5-1
	c-0.2-0.5-0.4-0.9-0.6-1.4c-0.1-0.3-0.3-0.6-0.4-0.9c-0.4-0.9-0.9-1.9-1.4-2.8c-0.1-0.3-0.3-0.6-0.4-0.8c-0.2-0.4-0.4-0.8-0.6-1.2
	c-0.2-0.4-0.4-0.8-0.6-1.1c-0.2-0.4-0.4-0.7-0.6-1.1c-0.2-0.4-0.4-0.8-0.6-1.1c-0.2-0.4-0.4-0.7-0.6-1.1c-0.2-0.4-0.4-0.8-0.6-1.1
	c-0.2-0.4-0.4-0.7-0.6-1.1c-0.2-0.4-0.4-0.8-0.6-1.1c-0.2-0.3-0.4-0.7-0.6-1c-0.2-0.4-0.4-0.7-0.6-1.1c-0.2-0.3-0.4-0.7-0.6-1
	c-0.2-0.4-0.4-0.7-0.7-1.1c-0.2-0.3-0.4-0.7-0.6-1c-0.2-0.4-0.5-0.8-0.7-1.1c-0.2-0.3-0.4-0.6-0.6-0.9c-0.2-0.4-0.5-0.8-0.7-1.2
	c-0.2-0.3-0.4-0.6-0.5-0.9c-0.3-0.4-0.5-0.8-0.8-1.3c-0.2-0.2-0.3-0.5-0.5-0.7c-0.4-0.6-0.8-1.3-1.3-1.9c-0.1-0.1-0.2-0.2-0.2-0.4
	c-0.3-0.5-0.7-1-1-1.5c-0.2-0.2-0.3-0.4-0.5-0.7c-0.3-0.4-0.5-0.8-0.8-1.2c-0.2-0.2-0.4-0.5-0.5-0.7c-0.3-0.4-0.5-0.7-0.8-1
	c-0.2-0.2-0.4-0.5-0.6-0.7c-0.3-0.3-0.5-0.7-0.8-1c-0.2-0.2-0.4-0.5-0.6-0.7c-0.3-0.3-0.5-0.6-0.8-0.9c-0.2-0.2-0.4-0.5-0.6-0.7
	c-0.3-0.3-0.5-0.6-0.8-0.9c-0.2-0.2-0.4-0.4-0.6-0.7c-0.3-0.3-0.5-0.6-0.8-0.9c-0.2-0.2-0.4-0.4-0.6-0.6c-0.3-0.3-0.5-0.6-0.8-0.9
	c-0.2-0.2-0.4-0.4-0.5-0.6c-0.3-0.3-0.6-0.6-0.9-0.9c-0.2-0.2-0.3-0.3-0.5-0.5c-0.4-0.3-0.7-0.7-1.1-1c-0.1-0.1-0.2-0.2-0.3-0.3
	c-0.5-0.4-0.9-0.8-1.4-1.2c-0.1-0.1-0.2-0.2-0.4-0.3c-0.3-0.3-0.7-0.6-1-0.9c-0.2-0.1-0.3-0.3-0.5-0.4c-0.3-0.2-0.6-0.5-0.9-0.7
	c-0.2-0.1-0.4-0.3-0.6-0.4c-0.3-0.2-0.6-0.4-0.8-0.6c-0.2-0.1-0.4-0.3-0.6-0.4c-0.3-0.2-0.5-0.4-0.8-0.5c-0.2-0.1-0.4-0.2-0.6-0.4
	c-0.3-0.2-0.5-0.3-0.8-0.5c-0.2-0.1-0.4-0.2-0.6-0.3c-0.3-0.1-0.5-0.3-0.8-0.4c-0.2-0.1-0.4-0.2-0.6-0.3c-0.3-0.1-0.5-0.3-0.8-0.4
	c-0.2-0.1-0.4-0.2-0.6-0.3c-0.3-0.1-0.6-0.2-0.9-0.3c-0.2-0.1-0.4-0.1-0.6-0.2c-0.3-0.1-0.6-0.2-1-0.3c-0.2,0-0.3-0.1-0.5-0.1
	c-0.5-0.1-1-0.3-1.4-0.4c-12.4-2.7-26.1,5.8-40.9,25.7l-0.5,0.6c-8,9.3-15.9,10.6-21.1,10.2c-9.6-1-15.1-8.3-16.9-11.2
	C146.6,104,133,95.5,120.6,98.2c-0.5,0.1-0.9,0.2-1.4,0.4c-0.2,0-0.3,0.1-0.5,0.1c-0.3,0.1-0.6,0.2-0.9,0.3
	c-0.2,0.1-0.4,0.1-0.6,0.2c-0.3,0.1-0.6,0.2-0.9,0.3c-0.2,0.1-0.4,0.2-0.6,0.3c-0.3,0.1-0.5,0.2-0.8,0.4c-0.2,0.1-0.4,0.2-0.6,0.3
	c-0.3,0.1-0.5,0.3-0.8,0.4c-0.2,0.1-0.4,0.2-0.6,0.3c-0.3,0.2-0.5,0.3-0.8,0.5c-0.2,0.1-0.4,0.2-0.6,0.4c-0.3,0.2-0.5,0.3-0.8,0.5
	c-0.2,0.1-0.4,0.3-0.6,0.4c-0.3,0.2-0.6,0.4-0.8,0.6c-0.2,0.1-0.4,0.3-0.6,0.4c-0.3,0.2-0.6,0.4-0.9,0.7c-0.2,0.1-0.3,0.3-0.5,0.4
	c-0.3,0.3-0.7,0.6-1,0.9c-0.1,0.1-0.2,0.2-0.3,0.3c-0.5,0.4-0.9,0.8-1.4,1.2c-0.1,0.1-0.2,0.2-0.3,0.3c-0.4,0.3-0.7,0.7-1,1
	c-0.2,0.2-0.3,0.3-0.5,0.5c-0.3,0.3-0.6,0.6-0.9,0.9c-0.2,0.2-0.4,0.4-0.5,0.6c-0.3,0.3-0.5,0.6-0.8,0.9c-0.2,0.2-0.4,0.4-0.6,0.6
	c-0.3,0.3-0.5,0.6-0.8,0.9c-0.2,0.2-0.4,0.4-0.6,0.7c-0.3,0.3-0.5,0.6-0.8,0.9c-0.2,0.2-0.4,0.5-0.6,0.7c-0.3,0.3-0.5,0.6-0.8,0.9
	c-0.2,0.2-0.4,0.5-0.6,0.7c-0.3,0.3-0.5,0.7-0.8,1c-0.2,0.2-0.4,0.5-0.6,0.7c-0.3,0.3-0.5,0.7-0.8,1c-0.2,0.2-0.4,0.5-0.5,0.7
	c-0.3,0.4-0.6,0.8-0.8,1.2c-0.2,0.2-0.3,0.4-0.5,0.6c-0.4,0.5-0.8,1.1-1.1,1.7c-0.1,0.1-0.1,0.2-0.2,0.3c-0.4,0.6-0.8,1.2-1.2,1.8
	c-0.2,0.2-0.3,0.5-0.5,0.7c-0.3,0.4-0.5,0.8-0.8,1.3c-0.2,0.3-0.4,0.6-0.5,0.9c-0.2,0.4-0.5,0.8-0.7,1.2c-0.2,0.3-0.4,0.6-0.6,0.9
	c-0.2,0.4-0.5,0.8-0.7,1.1c-0.2,0.3-0.4,0.6-0.6,1c-0.2,0.4-0.4,0.7-0.7,1.1c-0.2,0.3-0.4,0.7-0.6,1c-0.2,0.4-0.4,0.7-0.6,1.1
	c-0.2,0.3-0.4,0.7-0.6,1.1c-0.2,0.4-0.4,0.7-0.6,1.1c-0.2,0.4-0.4,0.7-0.6,1.1c-0.2,0.4-0.4,0.8-0.6,1.1c-0.2,0.4-0.4,0.7-0.6,1.1
	c-0.2,0.4-0.4,0.8-0.6,1.2c-0.2,0.4-0.4,0.7-0.6,1.1c-0.2,0.4-0.4,0.8-0.6,1.1c-0.2,0.4-0.4,0.8-0.6,1.2c0,0.1-0.1,0.2-0.1,0.2
	c-0.5,1.1-1.1,2.2-1.6,3.3c-0.2,0.3-0.3,0.6-0.5,1c-0.2,0.5-0.4,0.9-0.6,1.4c-0.2,0.3-0.3,0.7-0.5,1c-0.2,0.5-0.4,0.9-0.6,1.4
	c-0.1,0.3-0.3,0.7-0.4,1c-0.2,0.5-0.4,0.9-0.6,1.4c-0.1,0.3-0.3,0.7-0.4,1c-0.2,0.5-0.4,0.9-0.6,1.4c-0.1,0.3-0.3,0.6-0.4,1
	c-0.2,0.5-0.4,1-0.6,1.5c-0.1,0.3-0.3,0.6-0.4,0.9c-0.2,0.5-0.4,1-0.7,1.5c-0.1,0.3-0.2,0.6-0.4,0.8c-0.2,0.5-0.4,1.1-0.7,1.6
	c-0.1,0.2-0.2,0.5-0.3,0.7c-0.2,0.6-0.5,1.1-0.7,1.7c-0.1,0.2-0.1,0.3-0.2,0.5c-1.2,3-2.4,6.1-3.5,9.1c0,0,0,0,0,0
	c-0.3,0.7-0.5,1.4-0.8,2.1c0,0.1-0.1,0.2-0.1,0.3c-0.2,0.7-0.5,1.3-0.7,2c-0.1,0.2-0.1,0.3-0.2,0.5c-0.2,0.7-0.5,1.3-0.7,2
	c-0.1,0.2-0.1,0.3-0.2,0.5c-0.2,0.7-0.5,1.3-0.7,2c-0.1,0.2-0.1,0.3-0.2,0.5c-0.2,0.7-0.5,1.3-0.7,2c0,0.1-0.1,0.3-0.1,0.4
	c-0.2,0.7-0.5,1.4-0.7,2.1c0,0.1,0,0.1-0.1,0.2c-2.3,7.1-4.4,14-6.3,20.6c0,0,0,0,0,0c-0.2,0.7-0.4,1.5-0.6,2.2
	c23.7,40.7,72.4,68.6,128.5,68.6c56.1,0,104.8-28,128.5-68.6C309,215.4,308.8,214.7,308.6,213.9
	C308.6,213.9,308.6,213.9,308.6,213.9z M145.9,198.6h-0.5c-4.1-0.1-8.9-0.9-12.9-5.2c-2,3.6-5.1,6.4-9,7.9c-1.9,0.8-3.9,1.1-5.9,1.1
	c-2.4,0-4.8-0.5-7-1.6c-8.5-4-12.2-14.4-8.3-23.2c3.9-8.8,14-12.6,22.5-8.6c0.1,0,0.2,0.1,0.3,0.2c-0.5-3.3-1.7-6.6-4.1-7.8
	c-4.7-2.4-13.9,2.1-17.5,4.7c-2.6,1.8-6.2,1.1-7.9-1.6c-1.8-2.7-1-6.4,1.6-8.1c1.7-1.2,17.1-11.3,28.8-5.4c6.4,3.1,10,10,10.8,20.3
	c1.3,15.8,5.6,15.8,8.7,15.8h0.4c3.1,0,5.7,2.7,5.7,6C151.6,196,149.1,198.6,145.9,198.6z M204,220.3c-5.9,1.8-12.3-0.1-18.9-5.5
	c-0.9-0.5-1.6-0.8-2-0.9l-0.6,0.5c-5.5,4.3-10.4,6.5-15.1,6.5c-1.5,0-2.9-0.2-4.4-0.6c-8.9-2.7-12.3-12.6-12.6-13.8l10.3-3.5
	c0.4,1.4,2.5,5.6,5.5,6.5c2.7,0.9,6.3-1.3,8.9-3.5c2.4-2.8,8-5.7,15.7-0.8l0.6,0.4c2.6,2.2,6.4,4.7,9.4,3.8c3-1,5-5.4,5.5-6.5
	l10.3,3.5C216.2,207.7,212.8,217.6,204,220.3z M259.6,199.7c-0.7,0.2-1.5,0.2-2.2,0.2c-4.5,0-8.4-2.2-11.2-4.3
	c-3.3,2.3-7.4,4-12.5,4.2c-0.5,0-0.9,0-1.5,0c-6.5,0-11.9-2.1-15.9-6.2c-6.8-6.9-6.6-16.9-6.6-18.1c0.1-3.2,2.6-5.8,5.9-5.6
	c3.1,0.1,5.6,2.8,5.5,6.1c0,0.2,0,6,3.4,9.4c1.9,1.9,4.8,2.8,8.7,2.7c3.8-0.2,6.4-1.7,8.2-3.7c0.3-0.4,0.6-0.9,1-1.2
	c2.5-3.4,3.1-7.4,3.2-8.1c0.4-3.2,3.3-5.5,6.4-5.1c3.1,0.4,5.4,3.4,4.9,6.5c-0.3,2.8-1.4,6.6-3.3,10.2c1.3,0.9,2.8,1.6,4.1,1.4
	c3.1-0.5,6,1.7,6.5,4.9C264.8,196.1,262.6,199.1,259.6,199.7z"/>
<path class="st0" d="M329.2,138.5c-6.8-40.2-35.4-74.3-75.2-93.4c-21.6-10.6-46.5-16.6-73-16.6c-18.6,0-36.4,3-52.9,8.4
	c-56.9,18.2-97.4,65-97.4,119.9c0,1,0,2,0.1,2.9c0,0.3,0,0.6,0,0.8c0.3,9,1.7,17.8,4.1,26.3C73.1,84.1,116.2,79.2,116.2,79.2
	c0.2-0.1,0.4-0.1,0.5-0.2c0.7-0.2,1.5-0.4,2.2-0.5c20.6-4.4,41,6.2,60.5,31.6l0.8,1.1c0,0,0,0,0.1,0.1c0.4-0.3,0.9-0.8,1.6-1.5
	c19.5-25.1,39.7-35.6,60.3-31.2c0.7,0.2,1.5,0.3,2.2,0.5c0.2,0,0.4,0.1,0.6,0.2c0.7,0.2,1.4,0.4,2.1,0.7c0,0,0,0,0,0
	c0.7,0.2,1.4,0.5,2.1,0.8c0.2,0.1,0.4,0.1,0.5,0.2c0.7,0.3,1.4,0.6,2.1,0.9c0,0,0,0,0,0c0.7,0.3,1.4,0.7,2.1,1
	c0.2,0.1,0.3,0.2,0.5,0.3c0.7,0.4,1.3,0.7,2,1.1c0,0,0,0,0.1,0c0.7,0.4,1.4,0.8,2,1.3c0.2,0.1,0.3,0.2,0.5,0.3
	c0.6,0.4,1.3,0.9,1.9,1.3c0,0,0,0,0.1,0c0.7,0.5,1.3,1,2,1.5c0.2,0.1,0.3,0.2,0.5,0.4c0.6,0.5,1.2,1,1.9,1.5c0,0,0,0,0.1,0.1
	c0.6,0.5,1.3,1.1,1.9,1.6c0,0,0,0,0.1,0.1c16.1,13.6,38,41.2,58.4,97.1c3.2-10.4,4.9-21.3,4.9-32.6
	C330.7,150.6,330.2,144.5,329.2,138.5z"/>
<g>
	<ellipse class="st1" cx="177.4" cy="153.3" rx="142.2" ry="133.6"/>
	<g>
		<path class="st2" d="M334.8,242.8c-5.7,0-10.8-4.2-12.2-10.6c-11.9-55.2-44.1-145.6-79.2-153.9c-13.7-3.2-28.9,6.9-45.2,30.2
			l-0.6,0.8c-10.1,12-19.8,14.3-23.3,12c-10.6-1.1-16.7-9.8-18.7-13.1c-16.1-22.8-31.2-32.9-44.9-29.7c-35,8.3-67.2,98.7-79.1,153.9
			c-1.6,7.4-8.4,12-15.1,10.2S5.7,233.4,7.3,226c3.6-16.3,36.4-159.8,98.2-174.3c23.9-5.6,47.6,7.9,70.2,40.3l0.9,1.4
			c0,0,0,0,0.1,0.1c0.5-0.4,1-1,1.9-1.9c22.6-32,46-45.4,69.9-39.8c61.8,14.5,94.6,158,98.2,174.3c1.6,7.4-2.6,14.8-9.3,16.6
			C336.8,242.7,335.8,242.8,334.8,242.8z"/>
	</g>
	<g>
		<path class="st2" d="M163.2,218.1c-1.7,0-3.4-0.2-5.2-0.7c-10.5-3.1-14.4-14.3-14.8-15.6l12.1-3.9c0.5,1.6,3,6.4,6.4,7.4
			c3.2,1,7.4-1.5,10.5-3.9c2.8-3.2,9.3-6.5,18.5-0.9l0.7,0.5c3.1,2.5,7.5,5.3,11.1,4.3c3.6-1.1,5.9-6.2,6.4-7.4l12.1,3.9
			c-0.4,1.2-4.4,12.5-14.8,15.6c-6.9,2.1-14.4-0.1-22.1-6.3c-1.1-0.6-1.8-0.9-2.3-1l0,0l-0.7,0.6
			C174.5,215.7,168.7,218.1,163.2,218.1z M181.9,209.3L181.9,209.3L181.9,209.3z M181.9,209.3L181.9,209.3L181.9,209.3z"/>
	</g>
	<g>
		<path class="st2" d="M138.1,192.7L138.1,192.7h-0.6c-9-0.1-21.3-3.3-23.4-30.3c-0.4-4.6-1.6-10.2-5.2-12.1
			c-5.5-2.7-16.2,2.3-20.5,5.3c-3.1,2.1-7.3,1.2-9.2-1.8c-2.1-3.1-1.2-7.3,1.8-9.2c2-1.4,20.1-12.8,33.7-6.2
			c7.5,3.6,11.7,11.3,12.7,23c1.5,18,6.5,18,10.2,18h0.5c3.7,0,6.6,3.1,6.6,6.8C144.7,189.7,141.8,192.7,138.1,192.7z"/>
	</g>
	<g>
		<path class="st2" d="M105,197c-2.8,0-5.7-0.6-8.2-1.8c-10-4.6-14.3-16.4-9.7-26.3c4.6-10,16.4-14.3,26.3-9.7
			c10,4.6,14.3,16.4,9.7,26.3l0,0c-2.2,4.8-6.2,8.5-11.2,10.3C109.6,196.6,107.3,197,105,197z M105,170.7c-2.5,0-4.8,1.4-5.9,3.8
			c-1.5,3.2-0.1,7.1,3.2,8.6c1.6,0.7,3.3,0.7,4.9,0.2c1.6-0.6,3-1.8,3.7-3.3c1.5-3.2,0.1-7.1-3.2-8.6
			C106.8,170.9,106,170.7,105,170.7z M116.9,182.7L116.9,182.7L116.9,182.7z"/>
	</g>
	<g>
		<path class="st2" d="M239.3,194c-7.6,0-13.9-2.3-18.6-7c-8-7.9-7.7-19.2-7.7-20.5c0.1-3.7,3.1-6.6,6.9-6.4
			c3.7,0.1,6.5,3.2,6.4,6.9c0,0.2,0,6.8,3.9,10.7c2.2,2.2,5.7,3.2,10.2,3.1c12.3-0.5,14.4-13.3,14.6-14.8c0.5-3.7,3.8-6.3,7.5-5.8
			c3.7,0.5,6.3,3.8,5.8,7.4c-1.1,8.7-8.2,25.6-27.3,26.4C240.4,194,239.9,194,239.3,194z"/>
	</g>
	<g>
		<path class="st2" d="M268.7,194.2c-9.8,0-17.3-8.6-18.2-9.7c-2.3-2.8-2-7,0.9-9.3c2.8-2.3,7-2,9.3,0.9c1.5,1.7,5.5,5.3,8.5,4.8
			c3.7-0.6,7,2,7.6,5.5c0.6,3.6-2,7-5.5,7.6C270.4,194.2,269.6,194.2,268.7,194.2z"/>
	</g>
	<g class="st3">
		<path class="st4" d="M337.3,200.9c-0.8,0-1.6-0.1-2.4-0.3c-3.8-1.3-5.9-5.6-4.6-9.4c4.3-12.5,6.5-25.6,6.5-38.9
			c0-75.9-71.4-137.6-159.4-137.6S18,76.4,18,152.3c0,13.2,2.2,26.2,6.5,38.9c1.3,3.8-0.7,8.1-4.6,9.4c-3.8,1.3-8.1-0.7-9.4-4.6
			c-4.8-14-7.2-28.8-7.2-43.6C3.3,68.3,81.4,0,177.4,0s174.2,68.3,174.2,152.3c0,14.8-2.4,29.5-7.2,43.6
			C343.2,198.9,340.3,200.9,337.3,200.9z"/>
	</g>
</g>
</svg>
