<?xml version="1.0" encoding="utf-8"?>
<!-- Generator: Adobe Illustrator 24.0.2, SVG Export Plug-In . SVG Version: 6.00 Build 0)  -->
<svg version="1.1" id="圖層_1" xmlns="http://www.w3.org/2000/svg" xmlns:xlink="http://www.w3.org/1999/xlink" x="0px" y="0px"
	 viewBox="0 0 354.9 303.5" style="enable-background:new 0 0 354.9 303.5;" xml:space="preserve">
<style type="text/css">
	.st0{fill:#4E3B3A;}
</style>
<path class="st0" d="M122.5,177.9c-1-0.6-2.1-0.9-3.3-0.9c-3,0-5.8,1.6-7.2,4.6c-1.8,3.9-0.1,8.7,3.9,10.5c1.9,0.9,4,0.9,6,0.3
	c1.9-0.7,3.6-2.2,4.5-4C128.2,184.4,126.5,179.7,122.5,177.9z"/>
<path class="st0" d="M308.6,213.9c-1.8-6.6-3.9-13.5-6.3-20.6c0-0.1-0.1-0.2-0.1-0.2c-0.2-0.7-0.5-1.4-0.7-2.1
	c0-0.1-0.1-0.3-0.1-0.4c-0.2-0.7-0.5-1.3-0.7-2c-0.1-0.2-0.1-0.3-0.2-0.5c-0.2-0.7-0.5-1.3-0.7-2c-0.1-0.2-0.1-0.3-0.2-0.5
	c-0.2-0.7-0.5-1.3-0.7-2c-0.1-0.2-0.1-0.3-0.2-0.5c-0.2-0.7-0.5-1.3-0.7-2c0-0.1-0.1-0.2-0.1-0.3c-1.4-3.8-2.8-7.5-4.3-11.2
	c-0.1-0.2-0.1-0.3-0.2-0.5c-0.2-0.6-0.5-1.1-0.7-1.7c-0.1-0.3-0.2-0.5-0.3-0.8c-0.2-0.5-0.4-1.1-0.7-1.6c-0.1-0.3-0.2-0.6-0.4-0.9
	c-0.2-0.5-0.4-1-0.6-1.5c-0.1-0.3-0.3-0.6-0.4-0.9c-0.2-0.5-0.4-1-0.6-1.5c-0.1-0.3-0.3-0.6-0.4-1c-0.2-0.5-0.4-1-0.6-1.4
	c-0.1-0.3-0.3-0.6-0.4-1c-0.2-0.5-0.4-0.9-0.6-1.4c-0.1-0.3-0.3-0.6-0.4-1c-0.2-0.5-0.4-0.9-0.6-1.4c-0.2-0.3-0.3-0.7-0.5-1
	c-0.2-0.5-0.4-0.9-0.6-1.4c-0.1-0.3-0.3-0.6-0.4-0.9c-0.4-0.9-0.9-1.9-1.4-2.8c-0.1-0.3-0.3-0.6-0.4-0.8c-0.2-0.4-0.4-0.8-0.6-1.2
	c-0.2-0.4-0.4-0.8-0.6-1.1c-0.2-0.4-0.4-0.7-0.6-1.1c-0.2-0.4-0.4-0.8-0.6-1.1c-0.2-0.4-0.4-0.7-0.6-1.1c-0.2-0.4-0.4-0.8-0.6-1.1
	c-0.2-0.4-0.4-0.7-0.6-1.1c-0.2-0.4-0.4-0.8-0.6-1.1c-0.2-0.3-0.4-0.7-0.6-1c-0.2-0.4-0.4-0.7-0.6-1.1c-0.2-0.3-0.4-0.7-0.6-1
	c-0.2-0.4-0.4-0.7-0.7-1.1c-0.2-0.3-0.4-0.7-0.6-1c-0.2-0.4-0.5-0.8-0.7-1.1c-0.2-0.3-0.4-0.6-0.6-0.9c-0.2-0.4-0.5-0.8-0.7-1.2
	c-0.2-0.3-0.4-0.6-0.5-0.9c-0.3-0.4-0.5-0.8-0.8-1.3c-0.2-0.2-0.3-0.5-0.5-0.7c-0.4-0.6-0.8-1.3-1.3-1.9c-0.1-0.1-0.2-0.2-0.2-0.4
	c-0.3-0.5-0.7-1-1-1.5c-0.2-0.2-0.3-0.4-0.5-0.7c-0.3-0.4-0.5-0.8-0.8-1.2c-0.2-0.2-0.4-0.5-0.5-0.7c-0.3-0.4-0.5-0.7-0.8-1
	c-0.2-0.2-0.4-0.5-0.6-0.7c-0.3-0.3-0.5-0.7-0.8-1c-0.2-0.2-0.4-0.5-0.6-0.7c-0.3-0.3-0.5-0.6-0.8-0.9c-0.2-0.2-0.4-0.5-0.6-0.7
	c-0.3-0.3-0.5-0.6-0.8-0.9c-0.2-0.2-0.4-0.4-0.6-0.7c-0.3-0.3-0.5-0.6-0.8-0.9c-0.2-0.2-0.4-0.4-0.6-0.6c-0.3-0.3-0.5-0.6-0.8-0.9
	c-0.2-0.2-0.4-0.4-0.5-0.6c-0.3-0.3-0.6-0.6-0.9-0.9c-0.2-0.2-0.3-0.3-0.5-0.5c-0.4-0.3-0.7-0.7-1.1-1c-0.1-0.1-0.2-0.2-0.3-0.3
	c-0.5-0.4-0.9-0.8-1.4-1.2c-0.1-0.1-0.2-0.2-0.4-0.3c-0.3-0.3-0.7-0.6-1-0.9c-0.2-0.1-0.3-0.3-0.5-0.4c-0.3-0.2-0.6-0.5-0.9-0.7
	c-0.2-0.1-0.4-0.3-0.6-0.4c-0.3-0.2-0.6-0.4-0.8-0.6c-0.2-0.1-0.4-0.3-0.6-0.4c-0.3-0.2-0.5-0.4-0.8-0.5c-0.2-0.1-0.4-0.2-0.6-0.4
	c-0.3-0.2-0.5-0.3-0.8-0.5c-0.2-0.1-0.4-0.2-0.6-0.3c-0.3-0.1-0.5-0.3-0.8-0.4c-0.2-0.1-0.4-0.2-0.6-0.3c-0.3-0.1-0.5-0.3-0.8-0.4
	c-0.2-0.1-0.4-0.2-0.6-0.3c-0.3-0.1-0.6-0.2-0.9-0.3c-0.2-0.1-0.4-0.1-0.6-0.2c-0.3-0.1-0.6-0.2-1-0.3c-0.2,0-0.3-0.1-0.5-0.1
	c-0.5-0.1-1-0.3-1.4-0.4c-12.4-2.7-26.1,5.8-40.9,25.7l-0.5,0.6c-8,9.3-15.9,10.6-21.1,10.2c-9.6-1-15.1-8.3-16.9-11.2
	C146.6,104,133,95.5,120.6,98.2c-0.5,0.1-0.9,0.2-1.4,0.4c-0.2,0-0.3,0.1-0.5,0.1c-0.3,0.1-0.6,0.2-0.9,0.3
	c-0.2,0.1-0.4,0.1-0.6,0.2c-0.3,0.1-0.6,0.2-0.9,0.3c-0.2,0.1-0.4,0.2-0.6,0.3c-0.3,0.1-0.5,0.2-0.8,0.4c-0.2,0.1-0.4,0.2-0.6,0.3
	c-0.3,0.1-0.5,0.3-0.8,0.4c-0.2,0.1-0.4,0.2-0.6,0.3c-0.3,0.2-0.5,0.3-0.8,0.5c-0.2,0.1-0.4,0.2-0.6,0.4c-0.3,0.2-0.5,0.3-0.8,0.5
	c-0.2,0.1-0.4,0.3-0.6,0.4c-0.3,0.2-0.6,0.4-0.8,0.6c-0.2,0.1-0.4,0.3-0.6,0.4c-0.3,0.2-0.6,0.4-0.9,0.7c-0.2,0.1-0.3,0.3-0.5,0.4
	c-0.3,0.3-0.7,0.6-1,0.9c-0.1,0.1-0.2,0.2-0.3,0.3c-0.5,0.4-0.9,0.8-1.4,1.2c-0.1,0.1-0.2,0.2-0.3,0.3c-0.4,0.3-0.7,0.7-1,1
	c-0.2,0.2-0.3,0.3-0.5,0.5c-0.3,0.3-0.6,0.6-0.9,0.9c-0.2,0.2-0.4,0.4-0.5,0.6c-0.3,0.3-0.5,0.6-0.8,0.9c-0.2,0.2-0.4,0.4-0.6,0.6
	c-0.3,0.3-0.5,0.6-0.8,0.9c-0.2,0.2-0.4,0.4-0.6,0.7c-0.3,0.3-0.5,0.6-0.8,0.9c-0.2,0.2-0.4,0.5-0.6,0.7c-0.3,0.3-0.5,0.6-0.8,0.9
	c-0.2,0.2-0.4,0.5-0.6,0.7c-0.3,0.3-0.5,0.7-0.8,1c-0.2,0.2-0.4,0.5-0.6,0.7c-0.3,0.3-0.5,0.7-0.8,1c-0.2,0.2-0.4,0.5-0.5,0.7
	c-0.3,0.4-0.6,0.8-0.8,1.2c-0.2,0.2-0.3,0.4-0.5,0.6c-0.4,0.5-0.8,1.1-1.1,1.7c-0.1,0.1-0.1,0.2-0.2,0.3c-0.4,0.6-0.8,1.2-1.2,1.8
	c-0.2,0.2-0.3,0.5-0.5,0.7c-0.3,0.4-0.5,0.8-0.8,1.3c-0.2,0.3-0.4,0.6-0.5,0.9c-0.2,0.4-0.5,0.8-0.7,1.2c-0.2,0.3-0.4,0.6-0.6,0.9
	c-0.2,0.4-0.5,0.8-0.7,1.1c-0.2,0.3-0.4,0.6-0.6,1c-0.2,0.4-0.4,0.7-0.7,1.1c-0.2,0.3-0.4,0.7-0.6,1c-0.2,0.4-0.4,0.7-0.6,1.1
	c-0.2,0.3-0.4,0.7-0.6,1.1c-0.2,0.4-0.4,0.7-0.6,1.1c-0.2,0.4-0.4,0.7-0.6,1.1c-0.2,0.4-0.4,0.8-0.6,1.1c-0.2,0.4-0.4,0.7-0.6,1.1
	c-0.2,0.4-0.4,0.8-0.6,1.2c-0.2,0.4-0.4,0.7-0.6,1.1c-0.2,0.4-0.4,0.8-0.6,1.1c-0.2,0.4-0.4,0.8-0.6,1.2c0,0.1-0.1,0.2-0.1,0.2
	c-0.5,1.1-1.1,2.2-1.6,3.3c-0.2,0.3-0.3,0.6-0.5,1c-0.2,0.5-0.4,0.9-0.6,1.4c-0.2,0.3-0.3,0.7-0.5,1c-0.2,0.5-0.4,0.9-0.6,1.4
	c-0.1,0.3-0.3,0.7-0.4,1c-0.2,0.5-0.4,0.9-0.6,1.4c-0.1,0.3-0.3,0.7-0.4,1c-0.2,0.5-0.4,0.9-0.6,1.4c-0.1,0.3-0.3,0.6-0.4,1
	c-0.2,0.5-0.4,1-0.6,1.5c-0.1,0.3-0.3,0.6-0.4,0.9c-0.2,0.5-0.4,1-0.7,1.5c-0.1,0.3-0.2,0.6-0.4,0.8c-0.2,0.5-0.4,1.1-0.7,1.6
	c-0.1,0.2-0.2,0.5-0.3,0.7c-0.2,0.6-0.5,1.1-0.7,1.7c-0.1,0.2-0.1,0.3-0.2,0.5c-1.2,3-2.4,6.1-3.5,9.1c0,0,0,0,0,0
	c-0.3,0.7-0.5,1.4-0.8,2.1c0,0.1-0.1,0.2-0.1,0.3c-0.2,0.7-0.5,1.3-0.7,2c-0.1,0.2-0.1,0.3-0.2,0.5c-0.2,0.7-0.5,1.3-0.7,2
	c-0.1,0.2-0.1,0.3-0.2,0.5c-0.2,0.7-0.5,1.3-0.7,2c-0.1,0.2-0.1,0.3-0.2,0.5c-0.2,0.7-0.5,1.3-0.7,2c0,0.1-0.1,0.3-0.1,0.4
	c-0.2,0.7-0.5,1.4-0.7,2.1c0,0.1,0,0.1-0.1,0.2c-2.3,7.1-4.4,14-6.3,20.6c0,0,0,0,0,0c-0.2,0.7-0.4,1.5-0.6,2.2
	c23.7,40.7,72.4,59.3,128.5,59.3c56.1,0,104.8-18.7,128.5-59.3C309,215.4,308.8,214.7,308.6,213.9
	C308.6,213.9,308.6,213.9,308.6,213.9z M145.9,198.6h-0.5c-4.1-0.1-8.9-0.9-12.9-5.2c-2,3.6-5.1,6.4-9,7.9c-1.9,0.8-3.9,1.1-5.9,1.1
	c-2.4,0-4.8-0.5-7-1.6c-8.5-4-12.2-14.4-8.3-23.2c3.9-8.8,14-12.6,22.5-8.6c0.1,0,0.2,0.1,0.3,0.2c-0.5-3.3-1.7-6.6-4.1-7.8
	c-4.7-2.4-13.9,2.1-17.5,4.7c-2.6,1.8-6.2,1.1-7.9-1.6c-1.8-2.7-1-6.4,1.6-8.1c1.7-1.2,17.1-11.3,28.8-5.4c6.4,3.1,10,10,10.8,20.3
	c1.3,15.8,5.6,15.8,8.7,15.8h0.4c3.1,0,5.7,2.7,5.7,6C151.6,196,149.1,198.6,145.9,198.6z M204,220.3c-5.9,1.8-12.3-0.1-18.9-5.5
	c-0.9-0.5-1.6-0.8-2-0.9l-0.6,0.5c-5.5,4.3-10.4,6.5-15.1,6.5c-1.5,0-2.9-0.2-4.4-0.6c-8.9-2.7-12.3-12.6-12.6-13.8l10.3-3.5
	c0.4,1.4,2.5,5.6,5.5,6.5c2.7,0.9,6.3-1.3,8.9-3.5c2.4-2.8,8-5.7,15.7-0.8l0.6,0.4c2.6,2.2,6.4,4.7,9.4,3.8c3-1,5-5.4,5.5-6.5
	l10.3,3.5C216.2,207.7,212.8,217.6,204,220.3z M259.6,199.7c-0.7,0.2-1.5,0.2-2.2,0.2c-4.5,0-8.4-2.2-11.2-4.3
	c-3.3,2.3-7.4,4-12.5,4.2c-0.5,0-0.9,0-1.5,0c-6.5,0-11.9-2.1-15.9-6.2c-6.8-6.9-6.6-16.9-6.6-18.1c0.1-3.2,2.6-5.8,5.9-5.6
	c3.1,0.1,5.6,2.8,5.5,6.1c0,0.2,0,6,3.4,9.4c1.9,1.9,4.8,2.8,8.7,2.7c3.8-0.2,6.4-1.7,8.2-3.7c0.3-0.4,0.6-0.9,1-1.2
	c2.5-3.4,3.1-7.4,3.2-8.1c0.4-3.2,3.3-5.5,6.4-5.1c3.1,0.4,5.4,3.4,4.9,6.5c-0.3,2.8-1.4,6.6-3.3,10.2c1.3,0.9,2.8,1.6,4.1,1.4
	c3.1-0.5,6,1.7,6.5,4.9C264.8,196.1,262.6,199.1,259.6,199.7z"/>
<path class="st0" d="M329.2,138.5c-6.8-40.2-35.4-74.3-75.2-93.4c-21.6-10.6-46.5-16.6-73-16.6c-18.6,0-36.4,3-52.9,8.4
	c-56.9,18.2-97.4,65-97.4,119.9c0,1,0,2,0.1,2.9c0,0.3,0,0.6,0,0.8c0.3,9,1.7,17.8,4.1,26.3C73.1,84.1,116.2,79.2,116.2,79.2
	c0.2-0.1,0.4-0.1,0.5-0.2c0.7-0.2,1.5-0.4,2.2-0.5c20.6-4.4,41,6.2,60.5,31.6l0.8,1.1c0,0,0,0,0.1,0.1c0.4-0.3,0.9-0.8,1.6-1.5
	c19.5-25.1,39.7-35.6,60.3-31.2c0.7,0.2,1.5,0.3,2.2,0.5c0.2,0,0.4,0.1,0.6,0.2c0.7,0.2,1.4,0.4,2.1,0.7c0,0,0,0,0,0
	c0.7,0.2,1.4,0.5,2.1,0.8c0.2,0.1,0.4,0.1,0.5,0.2c0.7,0.3,1.4,0.6,2.1,0.9c0,0,0,0,0,0c0.7,0.3,1.4,0.7,2.1,1
	c0.2,0.1,0.3,0.2,0.5,0.3c0.7,0.4,1.3,0.7,2,1.1c0,0,0,0,0.1,0c0.7,0.4,1.4,0.8,2,1.3c0.2,0.1,0.3,0.2,0.5,0.3
	c0.6,0.4,1.3,0.9,1.9,1.3c0,0,0,0,0.1,0c0.7,0.5,1.3,1,2,1.5c0.2,0.1,0.3,0.2,0.5,0.4c0.6,0.5,1.2,1,1.9,1.5c0,0,0,0,0.1,0.1
	c0.6,0.5,1.3,1.1,1.9,1.6c0,0,0,0,0.1,0.1c16.1,13.6,38,41.2,58.4,97.1c3.2-10.4,4.9-21.3,4.9-32.6
	C330.7,150.6,330.2,144.5,329.2,138.5z"/>
</svg>
