<svg id="圖層_1" data-name="圖層 1" xmlns="http://www.w3.org/2000/svg" viewBox="0 0 153 116"><defs><style>.cls-1{fill:#4f3c3b;}</style></defs><path class="cls-1" d="M76.5,4c40,0,72.5,24.22,72.5,54s-32.52,54-72.5,54S4,87.78,4,58,36.52,4,76.5,4m0-4C34.25,0,0,26,0,58s34.25,58,76.5,58S153,90,153,58,118.75,0,76.5,0Z"/><path class="cls-1" d="M19.73,51.57a4.07,4.07,0,0,1,1.42-3.13,5.65,5.65,0,0,1,3.9-1.24,7.63,7.63,0,0,1,2.28.36,10.1,10.1,0,0,1,2,.87l-1,2.56c-.58-.25-1.11-.46-1.61-.63a5,5,0,0,0-1.63-.26,2.66,2.66,0,0,0-1.45.37,1.2,1.2,0,0,0-.56,1.07,1.46,1.46,0,0,0,.74,1.23,19.52,19.52,0,0,0,1.92,1.14A18.19,18.19,0,0,1,28.83,56a4.18,4.18,0,0,1,0,6.39,6.48,6.48,0,0,1-4.26,1.26,9.82,9.82,0,0,1-2.51-.4,5.8,5.8,0,0,1-2.1-.92l.86-2.69a10.39,10.39,0,0,0,1.71.73,6.2,6.2,0,0,0,2,.36,3.27,3.27,0,0,0,1.84-.43,1.3,1.3,0,0,0,.62-1.13,1.57,1.57,0,0,0-.84-1.25,16.3,16.3,0,0,0-1.86-1.1,18.09,18.09,0,0,1-3-2A3.94,3.94,0,0,1,19.73,51.57Z"/><path class="cls-1" d="M37.78,54.61a2.13,2.13,0,0,0-1.77.87,3.55,3.55,0,0,0-.67,2.24,3.38,3.38,0,0,0,.67,2.2,2.2,2.2,0,0,0,1.77.82A4.33,4.33,0,0,0,39,60.58,8.73,8.73,0,0,0,40.33,60l.91,2.42a4.72,4.72,0,0,1-1.87.9,7.86,7.86,0,0,1-1.75.26A5.47,5.47,0,0,1,33.49,62,5.93,5.93,0,0,1,32,57.72a6,6,0,0,1,1.52-4.35,5.39,5.39,0,0,1,4.13-1.62,7.71,7.71,0,0,1,1.74.26,4.89,4.89,0,0,1,1.88.9l-.91,2.42A10.17,10.17,0,0,0,39,54.78,4.32,4.32,0,0,0,37.78,54.61Z"/><path class="cls-1" d="M49.31,52.08,50,54.82a4.53,4.53,0,0,0-1.68.37,6.1,6.1,0,0,0-1.78,1.14v7H43.25V52.1h1.67l1,1.49a7.64,7.64,0,0,1,1.6-1.05A4.05,4.05,0,0,1,49.31,52.08Z"/><path class="cls-1" d="M56.71,51.75a5.6,5.6,0,0,1,4.23,1.62,6.08,6.08,0,0,1,1.56,4.42,5.5,5.5,0,0,1-1.66,4.27,6,6,0,0,1-4.28,1.54A5.43,5.43,0,0,1,52.47,62,6,6,0,0,1,51,57.67a5.84,5.84,0,0,1,1.59-4.34A5.7,5.7,0,0,1,56.71,51.75Zm-.11,9A2.45,2.45,0,0,0,58.43,60a3.07,3.07,0,0,0,.7-2.24,3.92,3.92,0,0,0-.62-2.31,2,2,0,0,0-1.75-.87,2.21,2.21,0,0,0-1.79.77,3.43,3.43,0,0,0-.65,2.27,3.86,3.86,0,0,0,.58,2.29A2,2,0,0,0,56.6,60.74Z"/><path class="cls-1" d="M68,46.94v16.4H64.81V47.2Z"/><path class="cls-1" d="M74.21,46.94v16.4H71V47.2Z"/><path class="cls-1" d="M92.61,46.94v16.4H90.93l-.78-1.11a5.88,5.88,0,0,1-1.59,1,4.88,4.88,0,0,1-2,.41,4.31,4.31,0,0,1-3.7-1.71,7,7,0,0,1-1.26-4.24A6.84,6.84,0,0,1,83,53.39a4.51,4.51,0,0,1,3.82-1.73,4.57,4.57,0,0,1,1.24.19,5.54,5.54,0,0,1,1.31.53V47.2Zm-5.14,13.8a2.61,2.61,0,0,0,.93-.19,4,4,0,0,0,.93-.46V55.31a3.38,3.38,0,0,0-1-.57,2.65,2.65,0,0,0-1-.22,1.86,1.86,0,0,0-1.83,1A4.52,4.52,0,0,0,85,57.63a4.28,4.28,0,0,0,.53,2.17A2,2,0,0,0,87.47,60.74Z"/><path class="cls-1" d="M100.66,51.75a5.59,5.59,0,0,1,4.22,1.62,6,6,0,0,1,1.57,4.42,5.54,5.54,0,0,1-1.66,4.27,6.05,6.05,0,0,1-4.29,1.54A5.46,5.46,0,0,1,96.41,62a6,6,0,0,1-1.51-4.37,5.84,5.84,0,0,1,1.59-4.34A5.7,5.7,0,0,1,100.66,51.75Zm-.11,9a2.48,2.48,0,0,0,1.83-.71,3.11,3.11,0,0,0,.7-2.24,3.92,3.92,0,0,0-.62-2.31,2,2,0,0,0-1.75-.87,2.21,2.21,0,0,0-1.79.77,3.38,3.38,0,0,0-.65,2.27,3.93,3.93,0,0,0,.57,2.29A2,2,0,0,0,100.55,60.74Z"/><path class="cls-1" d="M118.11,63.34,116,56.79l-2.06,6.55h-2.84L107.45,52.5l3.3-.42,1.84,6.5,1.75-6.5h3.37l1.86,6.5,1.71-6.5h3.35l-3.7,11.26Z"/><path class="cls-1" d="M132.66,51.66A3.61,3.61,0,0,1,135.82,53a5.69,5.69,0,0,1,.94,3.31v7H133.5v-6.9A2,2,0,0,0,133,55a1.58,1.58,0,0,0-1.25-.5,2.83,2.83,0,0,0-1.18.29,6.43,6.43,0,0,0-1.19.66v7.87h-3.26V52.08h1.68l.87,1.14a5.85,5.85,0,0,1,1.82-1.11A5.66,5.66,0,0,1,132.66,51.66Z"/></svg>